<svg width="29" height="39" viewBox="0 0 29 39" fill="none" xmlns="http://www.w3.org/2000/svg">
<path d="M10.9883 38.1785L10.9802 38.1722L10.9548 38.1468C10.8063 37.9968 10.659 37.8428 10.5129 37.685C8.75686 35.7692 7.11575 33.5186 5.61683 30.9707C2.96227 26.4232 0.149658 19.675 0.149658 11.3636C0.149658 5.16187 2.99227 0.243681 6.42324 0.243681C7.37702 0.235104 8.31959 0.621421 9.18084 1.3739C10.0421 2.12638 10.7999 3.22566 11.3978 4.58998C11.9959 3.22538 12.7538 2.12593 13.6153 1.37344C14.4767 0.620948 15.4195 0.234785 16.3735 0.243681C19.8033 0.243681 22.6459 5.16187 22.6459 11.3636C22.6459 19.6771 19.8333 26.4253 17.1788 30.9686C15.6799 33.5166 14.0388 35.7671 12.2827 37.6829C12.1366 37.8414 11.9893 37.9961 11.8408 38.1468L11.8154 38.1722L11.8073 38.1806L11.8039 38.1828C11.6788 38.3044 11.5394 38.368 11.3978 38.368C11.2562 38.368 11.1168 38.3044 10.9917 38.1828L10.9883 38.1785Z" fill="white"/>
<path d="M21.1807 34.6777L24.3351 23.3611H22.1597V16.0386L18.8965 27.3552H21.1807V34.6777ZM21.6158 38.6718C20.6127 38.6718 19.67 38.3223 18.7877 37.6234C17.9054 36.9244 17.138 35.9758 16.4853 34.7776C15.8327 33.5793 15.316 32.1703 14.9353 30.5505C14.5546 28.9306 14.3643 27.1999 14.3643 25.3581C14.3643 23.5164 14.5546 21.7857 14.9353 20.1658C15.316 18.546 15.8327 17.137 16.4853 15.9387C17.138 14.7405 17.9054 13.7919 18.7877 13.0929C19.67 12.394 20.6127 12.0445 21.6158 12.0445C22.6189 12.0445 23.5616 12.394 24.4439 13.0929C25.3262 13.7919 26.0936 14.7405 26.7463 15.9387C27.3989 17.137 27.9156 18.546 28.2963 20.1658C28.677 21.7857 28.8674 23.5164 28.8674 25.3581C28.8674 27.1999 28.677 28.9306 28.2963 30.5505C27.9156 32.1703 27.3989 33.5793 26.7463 34.7776C26.0936 35.9758 25.3262 36.9244 24.4439 37.6234C23.5616 38.3223 22.6189 38.6718 21.6158 38.6718Z" fill="#894189"/>
<path d="M21.5501 33.8304L24.4177 23.5426H22.44V16.8857L19.4735 27.1736H21.5501V33.8304ZM21.9456 37.4614C21.0337 37.4614 20.1767 37.1437 19.3746 36.5082C18.5725 35.8728 17.8748 35.0105 17.2815 33.9212C16.6882 32.8319 16.2185 31.5509 15.8724 30.0783C15.5263 28.6058 15.3533 27.0323 15.3533 25.3581C15.3533 23.6838 15.5263 22.1103 15.8724 20.6378C16.2185 19.1652 16.6882 17.8843 17.2815 16.795C17.8748 15.7057 18.5725 14.8433 19.3746 14.2079C20.1767 13.5724 21.0337 13.2547 21.9456 13.2547C22.8575 13.2547 23.7145 13.5724 24.5166 14.2079C25.3187 14.8433 26.0163 15.7057 26.6097 16.795C27.203 17.8843 27.6727 19.1652 28.0188 20.6378C28.3649 22.1103 28.5379 23.6838 28.5379 25.3581C28.5379 27.0323 28.3649 28.6058 28.0188 30.0783C27.6727 31.5509 27.203 32.8319 26.6097 33.9212C26.0163 35.0105 25.3187 35.8728 24.5166 36.5082C23.7145 37.1437 22.8575 37.4614 21.9456 37.4614Z" fill="white"/>
</svg>
