<svg width="22" height="54" viewBox="0 0 22 54" fill="none" xmlns="http://www.w3.org/2000/svg">
<path d="M9.63235 45.2353H11.4847V41.9747C12.3668 41.5835 13.1254 40.7357 13.7605 39.4315C14.3956 38.1273 14.7132 36.1928 14.7132 33.6278C14.7132 31.8019 14.5015 30.1282 14.0781 28.6066C13.6547 27.0851 12.8079 25.7591 11.5377 24.6288C10.4792 23.7593 9.74702 22.9986 9.34126 22.3465C8.9355 21.6943 8.73263 20.8031 8.73263 19.6728C8.73263 18.5425 8.89581 17.6513 9.22218 16.9992C9.54855 16.3471 10.0205 16.0211 10.6379 16.0211C11.2025 16.0211 11.6435 16.358 11.9611 17.0318C12.2786 17.7057 12.5079 18.5425 12.6491 19.5424L14.3427 17.8469C14.1486 16.3254 13.7914 14.9994 13.2709 13.8691C12.7505 12.7388 12.1728 12.1084 11.5377 11.978V8.7175H9.68528V11.978C8.80319 12.4562 8.11517 13.4126 7.6212 14.8473C7.12723 16.2819 6.88025 17.8904 6.88025 19.6728C6.88025 21.7161 7.12282 23.3681 7.60797 24.6288C8.09311 25.8895 8.85612 26.9764 9.89698 27.8893C11.0084 28.8892 11.7802 29.7804 12.2124 30.5629C12.6447 31.3455 12.8608 32.3671 12.8608 33.6278C12.8608 35.0625 12.6535 36.1167 12.2389 36.7905C11.8243 37.4644 11.326 37.8013 10.7438 37.8013C10.1616 37.8013 9.64558 37.3557 9.19572 36.4645C8.74586 35.5733 8.41508 34.2365 8.20338 32.454L6.45685 34.1495C6.70383 36.2362 7.08754 37.9208 7.60797 39.2033C8.1284 40.4858 8.80319 41.3661 9.63235 41.8443V45.2353ZM10.585 53.0605C9.12074 53.0605 7.74469 52.3758 6.45685 51.0064C5.16901 49.6369 4.04876 47.7785 3.09611 45.4309C2.14346 43.0833 1.38928 40.3227 0.833569 37.1492C0.277856 33.9756 0 30.5847 0 26.9764C0 23.3681 0.277856 19.9771 0.833569 16.8036C1.38928 13.63 2.14346 10.8694 3.09611 8.52187C4.04876 6.1743 5.16901 4.31581 6.45685 2.9464C7.74469 1.57698 9.12074 0.892273 10.585 0.892273C12.0493 0.892273 13.4253 1.57698 14.7132 2.9464C16.001 4.31581 17.1212 6.1743 18.0739 8.52187C19.0265 10.8694 19.7807 13.63 20.3364 16.8036C20.8921 19.9771 21.17 23.3681 21.17 26.9764C21.17 30.5847 20.8921 33.9756 20.3364 37.1492C19.7807 40.3227 19.0265 43.0833 18.0739 45.4309C17.1212 47.7785 16.001 49.6369 14.7132 51.0064C13.4253 52.3758 12.0493 53.0605 10.585 53.0605Z" fill="white"/>
</svg>
